<svg width="30" height="12" viewBox="0 0 30 12" fill="none" xmlns="http://www.w3.org/2000/svg">
<path d="M29.3333 1.77267H28.6987C28.6577 1.71233 28.618 1.65133 28.571 1.59367C28.112 1.02933 27.5213 0.808999 27.004 0.646999C25.2057 0.0839993 23.5717 0 22.7577 0C22.5523 0 22.4143 0.00566609 22.3577 0.00799942C21.406 0.0503328 20.5067 0.0906661 19.408 0.507999C18.7153 0.771333 17.8533 1.099 17.1713 1.96833C17.107 2.05 17.0553 2.13333 17.0003 2.21633C16.745 2.10933 16.4833 2.022 16.217 1.96C15.8287 1.869 15.4267 1.82833 15.019 1.83567C15.0183 1.83567 15.018 1.83533 15.0173 1.83533C15.0117 1.83533 15.006 1.83567 15.0003 1.83533C14.9943 1.83533 14.9887 1.835 14.9827 1.83533C14.982 1.83533 14.9817 1.83567 14.981 1.83567C14.5747 1.82867 14.1717 1.86933 13.784 1.96C13.517 2.022 13.2553 2.10933 13 2.21667C12.945 2.13367 12.8933 2.05067 12.829 1.96867C12.147 1.09933 11.285 0.771333 10.5917 0.507999C9.49367 0.0909994 8.59467 0.0506661 7.64267 0.00799942C7.586 0.00566609 7.448 0 7.24267 0C6.42867 0 4.79467 0.0839993 2.99633 0.646999C2.479 0.808999 1.88833 1.029 1.42933 1.59367C1.38267 1.65133 1.343 1.71233 1.30167 1.77267H0.666667C0.298667 1.77267 0 2.07133 0 2.43933C0 2.80733 0.298667 3.106 0.666667 3.106H0.813667C0.657 4.33 1.06933 5.73733 1.533 6.85833C2.049 8.10533 3.032 9.776 4.78567 10.6533C5.50733 11.0143 6.41167 11.2287 7.267 11.2417L7.34833 11.242C7.809 11.242 8.73567 11.1757 9.76633 10.7297C10.2323 10.5277 11.4207 9.91867 12.382 8.627C13.315 7.373 13.759 6.04067 13.7013 4.667C13.6893 4.38333 13.668 3.93867 13.5393 3.43433C13.718 3.36067 13.9007 3.30133 14.0863 3.258C14.3757 3.19033 14.6767 3.15933 14.9823 3.168C14.9877 3.168 14.9927 3.16667 14.998 3.16667C15.0043 3.16667 15.0107 3.16833 15.017 3.168C15.3237 3.15867 15.6237 3.19033 15.9137 3.258C16.099 3.30133 16.2813 3.36067 16.46 3.434C16.3313 3.93833 16.3097 4.38333 16.298 4.667C16.2403 6.04067 16.6843 7.373 17.6173 8.627C18.5787 9.91867 19.767 10.5277 20.2333 10.7297C21.2633 11.1753 22.1903 11.242 22.651 11.242L22.7323 11.2417C23.588 11.2287 24.4923 11.0143 25.2137 10.6533C26.9677 9.776 27.9507 8.10533 28.4667 6.85833C28.9303 5.73733 29.3427 4.33 29.186 3.106H29.3333C29.7013 3.106 30 2.80733 30 2.43933C30 2.07133 29.7013 1.77267 29.3333 1.77267Z" fill="#202124"/>
</svg>
